<svg xmlns="http://www.w3.org/2000/svg" xmlns:xlink="http://www.w3.org/1999/xlink" width="1000" zoomAndPan="magnify" viewBox="0 0 750 749.999995" height="1000" preserveAspectRatio="xMidYMid meet" version="1.2"><defs/><g id="2050c9d298"><g style="fill:#ffffff;fill-opacity:1;"><g transform="translate(55.687243, 470.233725)"><path style="stroke:none" d="M 170.8125 0 L 10.703125 0 L 10.703125 -42.25 L 109.203125 -159.203125 L 108.09375 -163.078125 L 15.3125 -163.078125 L 15.3125 -203.65625 L 169.34375 -203.65625 L 169.34375 -161.40625 L 70.84375 -44.453125 L 72.125 -40.578125 L 170.8125 -40.578125 Z M 170.8125 0 "/></g></g><g style="fill:#ffffff;fill-opacity:1;"><g transform="translate(234.799789, 470.233725)"><path style="stroke:none" d="M 201.078125 -90.203125 L 70.28125 -90.203125 C 71.757812 -72.492188 76.800781 -59.613281 85.40625 -51.5625 C 94.019531 -43.507812 105.765625 -39.484375 120.640625 -39.484375 C 132.328125 -39.484375 141.796875 -41.664062 149.046875 -46.03125 C 156.304688 -50.394531 162.148438 -57.003906 166.578125 -65.859375 L 170.453125 -65.859375 L 204.390625 -44.09375 C 197.753906 -29.820312 187.734375 -18.257812 174.328125 -9.40625 C 160.921875 -0.550781 143.023438 3.875 120.640625 3.875 C 99.609375 3.875 81.4375 -0.117188 66.125 -8.109375 C 50.820312 -16.109375 39.019531 -28.007812 30.71875 -43.8125 C 22.414062 -59.613281 18.265625 -78.890625 18.265625 -101.640625 C 18.265625 -124.765625 22.628906 -144.257812 31.359375 -160.125 C 40.085938 -175.988281 51.890625 -187.820312 66.765625 -195.625 C 81.648438 -203.4375 98.378906 -207.34375 116.953125 -207.34375 C 145.734375 -207.34375 167.773438 -199.71875 183.078125 -184.46875 C 198.390625 -169.21875 206.046875 -146.835938 206.046875 -117.328125 C 206.046875 -106.628906 205.679688 -98.328125 204.953125 -92.421875 Z M 157.171875 -123.234375 C 156.679688 -138.722656 153.082031 -150.003906 146.375 -157.078125 C 139.675781 -164.148438 129.867188 -167.6875 116.953125 -167.6875 C 91.128906 -167.6875 75.941406 -152.867188 71.390625 -123.234375 Z M 157.171875 -123.234375 "/></g></g><g style="fill:#ffffff;fill-opacity:1;"><g transform="translate(455.969783, 470.233725)"><path style="stroke:none" d="M 29.328125 0 L 29.328125 -203.46875 L 78.40625 -203.46875 L 78.40625 -173.59375 L 82.28125 -172.671875 C 94.945312 -195.785156 115.484375 -207.34375 143.890625 -207.34375 C 167.378906 -207.34375 184.625 -200.945312 195.625 -188.15625 C 206.632812 -175.363281 212.140625 -156.734375 212.140625 -132.265625 L 212.140625 0 L 161.046875 0 L 161.046875 -126 C 161.046875 -139.519531 158.335938 -149.257812 152.921875 -155.21875 C 147.515625 -161.1875 138.847656 -164.171875 126.921875 -164.171875 C 112.285156 -164.171875 100.875 -159.4375 92.6875 -149.96875 C 84.507812 -140.5 80.421875 -125.617188 80.421875 -105.328125 L 80.421875 0 Z M 29.328125 0 "/></g></g></g></svg>